<svg xmlns="http://www.w3.org/2000/svg" viewBox="0 0 258.95 253.48"><defs><style>.cls-1{fill:#d3f7ff;fill-rule:evenodd;}</style></defs><g id="Layer_2" data-name="Layer 2"><g id="Layer_1-2" data-name="Layer 1"><g id="Layer_2-2" data-name="Layer 2"><g id="Layer_1-2-2" data-name="Layer 1-2"><path class="cls-1" d="M130.08,0A129.94,129.94,0,0,0,89,253.27c6.54,1.2,8.85-2.87,8.85-6.3v-22.1c-36.3,7.9-43.95-17.47-43.95-17.47a34.82,34.82,0,0,0-14.44-19.06c-11.73-8,1-8,1-8a27.39,27.39,0,0,1,19.86,13.4A27.74,27.74,0,0,0,98,204.66l.1,0a27.59,27.59,0,0,1,8-17.39C77.19,184,46.88,172.78,46.88,123.4A50.26,50.26,0,0,1,60.2,88.54a47.36,47.36,0,0,1,1.28-34.38S72.4,50.65,97.21,67.49a122.9,122.9,0,0,1,65.09,0C187.11,50.65,198,54.16,198,54.16a47.17,47.17,0,0,1,1.6,34.15,50.22,50.22,0,0,1,13.32,34.85c0,49.94-30.39,60.87-59.35,63.82a30.72,30.72,0,0,1,8.85,23.93v35.66c0,4.23,2.32,7.5,8.94,6.22A129.94,129.94,0,0,0,130.08,0Z"/></g></g></g></g></svg>