<svg xmlns="http://www.w3.org/2000/svg" viewBox="0 0 995.74 995.74"><defs><style>.cls-1{fill:#2b0462;}.cls-2{fill:#f7fcfe;}</style></defs><g id="Layer_2" data-name="Layer 2"><g id="Design"><rect class="cls-1" width="995.74" height="995.74" rx="497.87"/><path class="cls-2" d="M926.47,472.65,875.2,513.3c-36.43-.38-82.11-.91-126.84-1.43-63-.73-122.48-1.43-147.93-1.59L580,510.15V489.73c0-30.9-.58-240.81-1.43-377.47l41.11-.26c.74,119.1,1.27,293.81,1.4,357.34,30.41.29,78,.84,127.75,1.42C818.77,471.57,891.08,472.41,926.47,472.65Z"/><path class="cls-2" d="M860.15,525.23l-21.39,16.95c-37.59-.31-89-.8-139.2-1.28-61.61-.59-119.8-1.14-145.43-1.31l-8.51-.06V531c0-6.28,0-21.76.08-43.59.2-86.13.6-265.34-.08-375.25l17.13-.11c.68,110,.28,289.25.08,375.4,0,15-.06,27-.07,35,28.66.22,81.42.72,137,1.25C760.2,524.35,822.49,524.94,860.15,525.23Z"/><path class="cls-2" d="M529.47,112C531,353.39,531,538.73,531,687.66c0,.35,0,.71,0,1.06-4.38,84.44-75.12,162.39-161.06,177.46a173.88,173.88,0,0,1-30,2.64c-33.28,0-65.73-9.78-95.2-28.88-37.67-24.4-69.46-63-94.69-115l33.1-26.24C226,792.12,291,838.28,362.81,825.69,430.49,813.82,486.2,753,489.89,687.11c0-148.78,0-333.88-1.52-574.85Z"/><path class="cls-2" d="M475.5,112.11c.51,171.34.36,313.59.22,439.1-.05,50.51-.1,97.62-.1,141.78,0,.25,0,.51,0,.77-2,22.36-14.78,47.35-35,68.56-21.69,22.78-48.9,37.89-76.61,42.54a109.86,109.86,0,0,1-18.21,1.52c-38.8,0-96.46-20.6-143.69-122.72l13.77-10.91.06,0C253.65,756.44,305.23,797.37,361.14,788c24.08-4.05,47.89-17.35,67.05-37.46,17.22-18.08,28.52-39.7,30.3-57.93,0-44,.05-91,.11-141.39.13-125.49.28-267.72-.22-439Z"/></g></g></svg>