<svg xmlns="http://www.w3.org/2000/svg" viewBox="0 0 2790.39 1025.07"><defs><style>.cls-1{fill:#2b0462;}.cls-2,.cls-3{fill:#f7fcfe;}.cls-3{font-size:250px;font-family:Poppins-SemiBold, Poppins;font-weight:600;}</style></defs><g id="Layer_2" data-name="Layer 2"><g id="Design"><rect class="cls-1" width="2790.39" height="1025.07"/><path class="cls-2" d="M1073.23,498.27l-63.41,50.27c-45.05-.47-101.54-1.13-156.87-1.77-77.9-.9-151.47-1.76-183-2l-25.25-.16V519.39c0-38.22-.71-297.82-1.76-466.84l50.84-.32c.92,147.29,1.57,363.37,1.73,442,37.6.35,96.45,1,158,1.75C940,496.94,1029.47,498,1073.23,498.27Z"/><path class="cls-2" d="M991.21,563.29l-26.46,21c-46.49-.39-110.07-1-172.15-1.59-76.2-.72-148.16-1.41-179.87-1.62L602.21,581V570.46c0-7.76,0-26.9.1-53.91.24-106.51.75-328.15-.1-464.09l21.18-.13c.85,136,.35,357.73.11,464.27,0,18.54-.08,33.36-.1,43.34,35.45.27,100.71.89,169.4,1.55C867.59,562.2,944.64,562.94,991.21,563.29Z"/><path class="cls-2" d="M582.24,52.23c1.89,298.54,1.89,527.77,1.89,711.95,0,.44,0,.88,0,1.32C578.68,869.93,491.19,966.33,384.9,985a214.7,214.7,0,0,1-37.14,3.26c-41.16,0-81.29-12.09-117.75-35.71-46.58-30.18-85.89-77.95-117.1-142.2l40.94-32.46c53,115.51,133.41,172.6,222.27,157C459.82,920.22,528.73,845,533.28,763.5c0-184,0-412.93-1.88-710.95Z"/><path class="cls-2" d="M515.49,52.36c.63,211.91.44,387.84.28,543.06-.07,62.48-.13,120.73-.13,175.35,0,.32,0,.64,0,1-2.51,27.66-18.28,58.57-43.28,84.81-26.84,28.16-60.49,46.85-94.76,52.61A136.45,136.45,0,0,1,355,911c-48,0-119.29-25.49-177.7-151.78l17-13.5.08,0C241.11,849.25,304.9,899.87,374.05,888.25c29.78-5,59.24-21.47,82.93-46.34,21.29-22.35,35.28-49.09,37.47-71.64,0-54.47.07-112.58.13-174.87.17-155.2.35-331.11-.27-543Z"/><text class="cls-3" transform="translate(1146.39 600.96)">Jessica Lee</text></g></g></svg>